<svg width="0" height="0" class="hidden">
  <symbol fill="none" xmlns="http://www.w3.org/2000/svg" viewBox="0 0 48 48" id="ant-design_shop-twotone">
    <g clip-path="url(#clip0)">
      <path opacity="0.15" d="M43.6503 13.75H4.35031C4.33231 13.75 4.32031 13.7619 4.32031 13.7796V19.1849C4.32031 22.7291 7.26031 25.6037 10.8783 25.6037C13.3203 25.6037 15.4503 24.2998 16.5843 22.3617C16.7583 22.0594 17.0883 21.8698 17.4423 21.8698C17.7963 21.8698 18.1203 22.0594 18.3003 22.3617C19.4283 24.2998 21.5583 25.6037 24.0003 25.6037C26.4483 25.6037 28.5843 24.2938 29.7063 22.3498C29.8803 22.0535 30.1983 21.8698 30.5403 21.8698H30.5763C30.9243 21.8698 31.2363 22.0535 31.4103 22.3498C32.5383 24.2938 34.6743 25.6037 37.1223 25.6037C40.7403 25.6037 43.6803 22.7291 43.6803 19.1849V13.7796C43.6803 13.7619 43.6683 13.75 43.6503 13.75Z" fill="white"></path>
      <path d="M46.2 9.48885V1.89659C46.2 0.847537 45.342 0 44.28 0H3.72003C2.65804 0 1.80004 0.847537 1.80004 1.89659V9.48885C0.798037 9.54812 3.71756e-05 10.372 3.71756e-05 11.3795V19.1851C-0.00380525 20.6197 0.290253 22.0398 0.864037 23.3576C1.12204 23.9622 1.44004 24.5311 1.80004 25.0705V45.518C1.80004 46.5612 2.65804 47.4146 3.72003 47.4146H44.28C45.342 47.4146 46.2 46.5671 46.2 45.518V25.0705C46.5657 24.5298 46.879 23.9563 47.136 23.3576C47.706 22.036 48 20.6313 48 19.1851V11.3795C48 10.372 47.202 9.54812 46.2 9.48885ZM6.12003 4.26732H41.88V9.48293H6.12003V4.26732ZM27.84 43.1532H20.16V36.9834H27.84V43.1532ZM41.904 43.1532H31.68V35.0868C31.68 34.0378 30.822 33.1902 29.76 33.1902H18.24C17.178 33.1902 16.32 34.0378 16.32 35.0868V43.1532H6.12003V28.7985C6.29403 28.8814 6.47403 28.9644 6.66003 29.0355C7.99803 29.5927 9.42003 29.8712 10.884 29.8712C12.348 29.8712 13.764 29.5927 15.108 29.0355C15.936 28.6918 16.716 28.2532 17.43 27.7257C17.442 27.7198 17.454 27.7198 17.466 27.7257C18.1822 28.2554 18.9622 28.6954 19.788 29.0355C21.126 29.5927 22.548 29.8712 24.012 29.8712C25.476 29.8712 26.892 29.5927 28.236 29.0355C29.064 28.6918 29.844 28.2532 30.558 27.7257C30.57 27.7198 30.582 27.7198 30.594 27.7257C31.3102 28.2554 32.0902 28.6954 32.916 29.0355C34.254 29.5927 35.676 29.8712 37.14 29.8712C38.604 29.8712 40.02 29.5927 41.364 29.0355C41.544 28.9585 41.724 28.8814 41.904 28.7985V43.1532ZM43.68 19.1851C43.68 22.7294 40.74 25.6039 37.122 25.6039C34.674 25.6039 32.538 24.2941 31.41 22.3501C31.236 22.0537 30.924 21.87 30.576 21.87H30.54C30.198 21.87 29.88 22.0537 29.706 22.3501C29.1304 23.3417 28.2992 24.1652 27.297 24.7367C26.2948 25.3082 25.1572 25.6074 24 25.6039C21.558 25.6039 19.428 24.3 18.3 22.3619C18.12 22.0597 17.796 21.87 17.442 21.87C17.088 21.87 16.758 22.0597 16.584 22.3619C16.005 23.3498 15.1728 24.1695 14.1711 24.7387C13.1694 25.3078 12.0336 25.6062 10.878 25.6039C7.26003 25.6039 4.32003 22.7294 4.32003 19.1851V13.7799C4.32003 13.7621 4.33203 13.7502 4.35003 13.7502H43.65C43.668 13.7502 43.68 13.7621 43.68 13.7799V19.1851Z" fill="white"></path>
    </g>
    <defs>
      <clipPath id="clip0">
        <rect width="48" height="47.4146" fill="white"></rect>
      </clipPath>
    </defs>
  </symbol>
  <symbol fill="none" xmlns="http://www.w3.org/2000/svg" viewBox="0 0 48 38" id="carbon_notebook">
    <g clip-path="url(#clip0)">
      <path d="M29.1426 8.62402H41.1404V12.0693H29.1426V8.62402Z" fill="#0D5C63"></path>
      <path d="M29.1426 17.2373H41.1404V20.6826H29.1426V17.2373Z" fill="#0D5C63"></path>
      <path d="M29.1426 25.8506H41.1404V29.2959H29.1426V25.8506Z" fill="#0D5C63"></path>
      <path d="M44.5674 0.0112305H3.43187C2.52299 0.0121426 1.65161 0.375424 1.00893 1.02135C0.366264 1.66727 0.00481376 2.54307 0.00390625 3.45655V34.4644C0.00481376 35.3779 0.366264 36.2537 1.00893 36.8996C1.65161 37.5455 2.52299 37.9088 3.43187 37.9097H44.5674C45.4761 37.9084 46.3472 37.5449 46.9898 36.8991C47.6324 36.2533 47.994 35.3777 47.9953 34.4644V3.45655C47.9944 2.54307 47.633 1.66727 46.9903 1.02135C46.3477 0.375424 45.4763 0.0121426 44.5674 0.0112305ZM3.43187 3.45655H22.2856V34.4644H3.43187V3.45655ZM25.7136 34.4644V3.45655H44.5674L44.5708 34.4644H25.7136Z" fill="#0D5C63"></path>
    </g>
    <defs>
      <clipPath id="clip0">
        <rect width="48" height="37.92" fill="white"></rect>
      </clipPath>
    </defs>
  </symbol>
  <symbol fill="none" xmlns="http://www.w3.org/2000/svg" viewBox="0 0 48 41" id="carbon_tool-box">
    <g clip-path="url(#clip0)">
      <path d="M42.5886 8.52554H37.519V3.45592C37.519 2.55955 37.1629 1.6999 36.5291 1.06608C35.8953 0.432251 35.0356 0.0761719 34.1393 0.0761719H13.8608C12.9644 0.0761719 12.1048 0.432251 11.4709 1.06608C10.8371 1.6999 10.481 2.55955 10.481 3.45592V8.52554H5.41142C4.06687 8.52554 2.77739 9.05966 1.82665 10.0104C0.875916 10.9611 0.341797 12.2506 0.341797 13.5952V37.2534C0.341797 38.1497 0.697876 39.0094 1.3317 39.6432C1.96553 40.2771 2.82518 40.6331 3.72154 40.6331H44.2785C45.1749 40.6331 46.0345 40.2771 46.6683 39.6432C47.3022 39.0094 47.6582 38.1497 47.6582 37.2534V13.5952C47.6582 12.2506 47.1241 10.9611 46.1734 10.0104C45.2227 9.05966 43.9332 8.52554 42.5886 8.52554ZM13.8608 3.45592H34.1393V8.52554H13.8608V3.45592ZM44.2785 37.2534H3.72154V22.0445H17.2405V30.4939H30.7595V22.0445H44.2785V37.2534ZM20.6203 22.0445H27.3798V27.1141H20.6203V22.0445ZM3.72154 18.6648V13.5952C3.72154 13.147 3.89958 12.7172 4.2165 12.4002C4.53341 12.0833 4.96323 11.9053 5.41142 11.9053H42.5886C43.0368 11.9053 43.4666 12.0833 43.7836 12.4002C44.1005 12.7172 44.2785 13.147 44.2785 13.5952V18.6648H3.72154Z" fill="#0D5C63"></path>
    </g>
    <defs>
      <clipPath id="clip0">
        <rect width="48" height="40.7089" fill="white"></rect>
      </clipPath>
    </defs>
  </symbol>
  <symbol fill="none" xmlns="http://www.w3.org/2000/svg" viewBox="0 0 24 24" id="facebook-filled">
    <path d="M23.04 0H0.96C0.429 0 0 0.429 0 0.96V23.04C0 23.571 0.429 24 0.96 24H23.04C23.571 24 24 23.571 24 23.04V0.96C24 0.429 23.571 0 23.04 0ZM20.268 7.005H18.351C16.848 7.005 16.557 7.719 16.557 8.769V11.082H20.145L19.677 14.703H16.557V24H12.816V14.706H9.687V11.082H12.816V8.412C12.816 5.313 14.709 3.624 17.475 3.624C18.801 3.624 19.938 3.723 20.271 3.768V7.005H20.268Z" fill="#335BF5"></path>
  </symbol>
  <symbol fill="none" xmlns="http://www.w3.org/2000/svg" viewBox="0 0 57 71" id="geo_location">
    <path d="M28.5 42C36.4967 42 43 35.721 43 28C43 20.279 36.4967 14 28.5 14C20.5032 14 14 20.279 14 28C14 35.721 20.5032 42 28.5 42ZM28.5 21C32.4984 21 35.75 24.1395 35.75 28C35.75 31.8605 32.4984 35 28.5 35C24.5016 35 21.25 31.8605 21.25 28C21.25 24.1395 24.5016 21 28.5 21Z" fill="white"></path>
    <path d="M26.4338 70.3403C27.0367 70.7693 27.7591 71 28.5 71C29.2409 71 29.9633 70.7693 30.5662 70.3403C31.6492 69.577 57.103 51.2624 56.9997 28.4002C56.9997 12.7411 44.214 0 28.5 0C12.786 0 0.000313631 12.7411 0.000313631 28.3825C-0.102998 51.2624 25.3508 69.577 26.4338 70.3403ZM28.5 7.10006C40.2882 7.10006 49.8748 16.6532 49.8748 28.418C49.9496 44.173 34.2427 58.3199 28.5 62.9598C22.7609 58.3163 7.05042 44.1659 7.12524 28.4002C7.12524 16.6532 16.7118 7.10006 28.5 7.10006Z" fill="white"></path>
  </symbol>
  <symbol fill="none" xmlns="http://www.w3.org/2000/svg" viewBox="0 0 24 24" id="instagram">
    <path d="M12.0026 5.84744C8.59756 5.84744 5.84956 8.59544 5.84956 12.0004C5.84956 15.4054 8.59756 18.1534 12.0026 18.1534C15.4076 18.1534 18.1556 15.4054 18.1556 12.0004C18.1556 8.59544 15.4076 5.84744 12.0026 5.84744ZM12.0026 15.9994C9.80056 15.9994 8.00356 14.2024 8.00356 12.0004C8.00356 9.79844 9.80056 8.00144 12.0026 8.00144C14.2046 8.00144 16.0016 9.79844 16.0016 12.0004C16.0016 14.2024 14.2046 15.9994 12.0026 15.9994ZM18.4076 4.16144C17.6126 4.16144 16.9706 4.80344 16.9706 5.59844C16.9706 6.39344 17.6126 7.03544 18.4076 7.03544C19.2026 7.03544 19.8446 6.39644 19.8446 5.59844C19.8448 5.40966 19.8078 5.22269 19.7357 5.04824C19.6635 4.87379 19.5577 4.71528 19.4242 4.5818C19.2907 4.44831 19.1322 4.34247 18.9578 4.27034C18.7833 4.19821 18.5963 4.1612 18.4076 4.16144ZM23.9966 12.0004C23.9966 10.3444 24.0116 8.70344 23.9186 7.05044C23.8256 5.13044 23.3876 3.42644 21.9836 2.02244C20.5766 0.615437 18.8756 0.180437 16.9556 0.0874372C15.2996 -0.00556279 13.6586 0.00943725 12.0056 0.00943725C10.3496 0.00943725 8.70856 -0.00556279 7.05556 0.0874372C5.13556 0.180437 3.43156 0.618437 2.02756 2.02244C0.620564 3.42944 0.185564 5.13044 0.0925642 7.05044C-0.000435829 8.70644 0.0145642 10.3474 0.0145642 12.0004C0.0145642 13.6534 -0.000435829 15.2974 0.0925642 16.9504C0.185564 18.8704 0.623564 20.5744 2.02756 21.9784C3.43456 23.3854 5.13556 23.8204 7.05556 23.9134C8.71156 24.0064 10.3526 23.9914 12.0056 23.9914C13.6616 23.9914 15.3026 24.0064 16.9556 23.9134C18.8756 23.8204 20.5796 23.3824 21.9836 21.9784C23.3906 20.5714 23.8256 18.8704 23.9186 16.9504C24.0146 15.2974 23.9966 13.6564 23.9966 12.0004ZM21.3566 19.0744C21.1376 19.6204 20.8736 20.0284 20.4506 20.4484C20.0276 20.8714 19.6226 21.1354 19.0766 21.3544C17.4986 21.9814 13.7516 21.8404 12.0026 21.8404C10.2536 21.8404 6.50356 21.9814 4.92556 21.3574C4.37956 21.1384 3.97156 20.8744 3.55156 20.4514C3.12856 20.0284 2.86456 19.6234 2.64556 19.0774C2.02156 17.4964 2.16256 13.7494 2.16256 12.0004C2.16256 10.2514 2.02156 6.50144 2.64556 4.92344C2.86456 4.37744 3.12856 3.96944 3.55156 3.54944C3.97456 3.12944 4.37956 2.86244 4.92556 2.64344C6.50356 2.01944 10.2536 2.16044 12.0026 2.16044C13.7516 2.16044 17.5016 2.01944 19.0796 2.64344C19.6256 2.86244 20.0336 3.12644 20.4536 3.54944C20.8766 3.97244 21.1406 4.37744 21.3596 4.92344C21.9836 6.50144 21.8426 10.2514 21.8426 12.0004C21.8426 13.7494 21.9836 17.4964 21.3566 19.0744Z" fill="#E61F5A"></path>
  </symbol>
  <symbol fill="none" xmlns="http://www.w3.org/2000/svg" viewBox="0 0 70 71" id="message">
    <path d="M68.3484 1.16199C67.9592 0.759029 67.4674 0.480035 66.9308 0.357809C66.3943 0.235584 65.8354 0.275208 65.3198 0.472024L1.8615 24.4708C1.31422 24.6867 0.84305 25.0706 0.51056 25.5716C0.178071 26.0726 0 26.6669 0 27.2756C0 27.8844 0.178071 28.4787 0.51056 28.9797C0.84305 29.4807 1.31422 29.8646 1.8615 30.0805L29.5524 41.5999L40.6287 70.3984C40.8368 70.9426 41.1935 71.4115 41.6549 71.7473C42.1162 72.0832 42.6619 72.2712 43.2248 72.2883C43.8077 72.2759 44.3733 72.08 44.847 71.7266C45.3207 71.3732 45.6804 70.8787 45.8785 70.3084L68.9542 4.31183C69.1507 3.78108 69.1981 3.20317 69.0909 2.64548C68.9836 2.08779 68.7261 1.5733 68.3484 1.16199ZM43.2248 60.8889L35.1771 39.89L48.9937 25.5207L44.9266 21.291L30.9946 35.7802L10.9187 27.2906L61.4834 8.30162L43.2248 60.8889Z" fill="#FF7B47"></path>
  </symbol>
  <symbol fill="none" xmlns="http://www.w3.org/2000/svg" viewBox="0 0 30 30" id="people">
    <path fill-rule="evenodd" clip-rule="evenodd" d="M17.2367 7.77151C16.7729 8.09308 16.2497 8.31905 15.6976 8.43623C15.1456 8.55342 14.5757 8.55949 14.0212 8.45407C13.4668 8.34865 12.9389 8.13385 12.4684 7.82223C11.9979 7.5106 11.5941 7.10838 11.2807 6.63904C10.9673 6.1697 10.7505 5.64263 10.643 5.08861C10.5354 4.53458 10.5393 3.96468 10.6544 3.41218C10.7695 2.85967 10.9935 2.33562 11.3133 1.8706C11.6331 1.40559 12.0423 1.00893 12.517 0.703761C13.4544 0.0846608 14.5986 -0.138187 15.6998 0.0839308C16.8009 0.306048 17.7693 0.955065 18.3933 1.88911C19.0173 2.82315 19.2462 3.96625 19.0298 5.06853C18.8135 6.17081 18.1696 7.14262 17.2388 7.77151H17.2367ZM16.0573 2.47176C15.8259 2.30528 15.5633 2.18706 15.2853 2.12415C15.0072 2.06124 14.7193 2.05493 14.4388 2.10558C14.1583 2.15622 13.8908 2.26281 13.6523 2.41897C13.4138 2.57514 13.2091 2.7777 13.0505 3.0146C12.8919 3.25149 12.7826 3.51788 12.7291 3.79789C12.6756 4.07791 12.679 4.36583 12.739 4.64451C12.7991 4.92319 12.9146 5.18694 13.0788 5.42004C13.2429 5.65315 13.4522 5.85086 13.6943 6.00139C14.162 6.28552 14.7214 6.37824 15.2558 6.26023C15.7902 6.14222 16.2585 5.82258 16.563 5.36789C16.8676 4.9132 16.985 4.35852 16.8908 3.81941C16.7966 3.2803 16.498 2.79833 16.0573 2.47389V2.47176ZM21.6036 2.53551C22.2164 2.12326 22.9539 1.93762 23.6889 2.01054C24.4239 2.08346 25.1105 2.41038 25.6304 2.93501C26.0009 3.30848 26.2741 3.76715 26.426 4.27079C26.578 4.77443 26.604 5.30766 26.5018 5.82371C26.3997 6.33975 26.1724 6.82284 25.8401 7.23061C25.5077 7.63838 25.0804 7.95837 24.5956 8.16251C24.0133 8.40598 23.3715 8.47011 22.7526 8.34669C22.1336 8.22328 21.5656 7.91794 21.1212 7.46976C20.7872 7.13405 20.5315 6.72865 20.3725 6.28259C20.2135 5.83653 20.155 5.36083 20.2013 4.88954C20.2476 4.41825 20.3975 3.96302 20.6403 3.55643C20.8831 3.14984 21.2127 2.80194 21.6057 2.53764L21.6036 2.53551ZM22.6236 5.95676C22.8231 6.15543 23.0933 6.2667 23.3749 6.2661C23.5143 6.2658 23.6523 6.23805 23.7809 6.18443C23.9096 6.13081 24.0265 6.05236 24.1249 5.95357C24.2232 5.85479 24.3012 5.73759 24.3543 5.60868C24.4073 5.47977 24.4345 5.34167 24.4342 5.20226C24.4339 5.06285 24.4062 4.92486 24.3525 4.79618C24.2989 4.66749 24.2205 4.55063 24.1217 4.45226C23.9238 4.25328 23.6564 4.13899 23.3758 4.13351C23.2357 4.13323 23.0968 4.16073 22.9674 4.21442C22.8379 4.26811 22.7204 4.34694 22.6216 4.44633C22.5228 4.54573 22.4447 4.66372 22.3918 4.7935C22.3388 4.92327 22.3122 5.06224 22.3133 5.20239C22.314 5.48539 22.4253 5.7569 22.6236 5.95889V5.95676ZM4.65455 24.3975H8.5008V26.5331H4.65455C3.98123 26.5271 3.3378 26.2542 2.8653 25.7745C2.39099 25.293 2.12533 24.6441 2.1258 23.9683V20.122C1.8397 20.1124 1.5585 20.045 1.29919 19.9237C1.03988 19.8025 0.807827 19.6299 0.61705 19.4165C0.414334 19.2112 0.255241 18.967 0.149338 18.6985C0.0434344 18.4301 -0.00709083 18.1431 0.000800442 17.8546V13.2179C0.00717544 12.2149 0.40455 11.2565 1.1058 10.5446C1.80493 9.84126 2.75055 9.43964 3.7408 9.43326H7.6508C7.1234 10.0614 6.72612 10.788 6.48205 11.571H3.7408C3.30951 11.5834 2.89915 11.7597 2.5933 12.064C2.29287 12.3729 2.1251 12.787 2.1258 13.2179V17.9609H4.2508V23.9661C4.24587 24.024 4.25275 24.0823 4.27101 24.1375C4.28928 24.1926 4.31855 24.2435 4.35705 24.287C4.44247 24.353 4.54664 24.3902 4.65455 24.3933V24.3975ZM20.167 10.5468C19.8193 10.1957 19.4057 9.91675 18.9498 9.72602C18.494 9.53529 18.0049 9.43653 17.5108 9.43539H12.2408C11.2502 9.44331 10.3029 9.84284 9.6058 10.5468C8.90455 11.2586 8.50718 12.217 8.5008 13.22V19.9733C8.4978 20.5531 8.71853 21.1118 9.11705 21.533C9.30806 21.7462 9.54016 21.9185 9.79943 22.0397C10.0587 22.161 10.3398 22.2286 10.6258 22.2385V27.1749C10.6238 27.5118 10.6885 27.8458 10.8161 28.1576C10.9438 28.4695 11.1319 28.7529 11.3696 28.9918C11.7521 29.3488 12.2344 29.5804 12.7508 29.6548H17.0008C17.5985 29.5763 18.1461 29.2797 18.5384 28.8219C18.9306 28.3642 19.1398 27.7776 19.1258 27.1749V22.2364C19.4119 22.2268 19.6931 22.1594 19.9524 22.0381C20.2117 21.9169 20.4438 21.7443 20.6346 21.5309C20.8371 21.3259 20.9961 21.082 21.102 20.814C21.2079 20.5459 21.2585 20.2592 21.2508 19.9711V13.2179C21.2523 12.2195 20.8633 11.2601 20.167 10.5446V10.5468ZM19.1258 20.0774H17.0008V27.1749C16.9987 27.2869 16.953 27.3937 16.8733 27.4724C16.837 27.5153 16.7913 27.5492 16.7396 27.5713C16.688 27.5935 16.6319 27.6032 16.5758 27.5999H13.1546C13.0435 27.5947 12.9384 27.5483 12.8598 27.4697C12.7812 27.3911 12.7347 27.2859 12.7296 27.1749V20.0774H10.6258V13.2179C10.6258 12.7865 10.7937 12.3721 11.0933 12.064C11.3992 11.7597 11.8095 11.5834 12.2408 11.571H17.5108C17.8327 11.5767 18.146 11.6762 18.4121 11.8574C18.6782 12.0386 18.8857 12.2936 19.0089 12.591C19.0898 12.7899 19.1296 13.0032 19.1258 13.2179V20.0774ZM25.0971 26.531H21.2508V24.3954H25.0758C25.1837 24.3924 25.2879 24.3552 25.3733 24.2891C25.4161 24.2473 25.4496 24.1969 25.4715 24.1413C25.4935 24.0856 25.5035 24.0259 25.5008 23.9661V17.9609H27.6258V13.2179C27.6265 12.787 27.4587 12.3729 27.1583 12.064C26.8524 11.7597 26.4421 11.5834 26.0108 11.571H23.2696C23.0256 10.788 22.6283 10.0613 22.1008 9.43326H26.0108C27.0012 9.44234 27.9481 9.84169 28.6458 10.5446C29.347 11.2565 29.7444 12.2149 29.7508 13.2179V17.8546C29.7508 18.4348 29.5319 18.9915 29.1367 19.4123C28.7414 19.8351 28.2017 20.088 27.6258 20.1199V23.9661C27.6258 24.644 27.3602 25.2921 26.8863 25.7724C26.4138 26.2521 25.7704 26.5249 25.0971 26.531ZM6.3758 1.99576C5.74346 1.99503 5.12531 2.18314 4.60057 2.536C4.07583 2.88885 3.66842 3.39037 3.43055 3.97626C3.19049 4.56195 3.12817 5.20536 3.25136 5.82623C3.37456 6.4471 3.67781 7.01797 4.1233 7.46764C4.56863 7.91678 5.13774 8.22298 5.75793 8.34712C6.37812 8.47126 7.02124 8.4077 7.60514 8.16456C8.18903 7.92142 8.68719 7.50975 9.03598 6.98212C9.38478 6.45449 9.56837 5.83486 9.5633 5.20239C9.5633 4.35239 9.22755 3.53639 8.6283 2.93501C8.33323 2.63779 7.98233 2.40181 7.59577 2.24063C7.20921 2.07944 6.79462 1.99622 6.3758 1.99576ZM6.3758 6.27126C6.23565 6.27155 6.09684 6.24405 5.96739 6.19035C5.83793 6.13666 5.72041 6.05784 5.6216 5.95844C5.5228 5.85905 5.44468 5.74105 5.39176 5.61128C5.33885 5.48151 5.31218 5.34253 5.3133 5.20239C5.31385 4.92017 5.42577 4.64959 5.62473 4.44944C5.82368 4.24928 6.0936 4.13575 6.3758 4.13351C6.65714 4.13847 6.92548 4.25287 7.12386 4.45244C7.32223 4.652 7.43503 4.92102 7.4383 5.20239C7.43775 5.4846 7.32583 5.75519 7.12688 5.95534C6.92792 6.15549 6.658 6.26902 6.3758 6.27126Z" fill="#FF7B47"></path>
  </symbol>
  <symbol fill="none" xmlns="http://www.w3.org/2000/svg" viewBox="0 0 72 72" id="phone">
    <path d="M55.929 38.9947C55.5775 38.6426 55.16 38.3632 54.7004 38.1726C54.2408 37.982 53.7482 37.8839 53.2506 37.8839C52.7531 37.8839 52.2604 37.982 51.8008 38.1726C51.3413 38.3632 50.9238 38.6426 50.5722 38.9947L44.5335 45.0334C41.7339 44.1999 36.5097 42.3057 33.1987 38.9947C29.8876 35.6836 27.9934 30.4594 27.16 27.6598L33.1987 21.6211C33.5508 21.2696 33.8301 20.8521 34.0207 20.3925C34.2113 19.9329 34.3094 19.4403 34.3094 18.9427C34.3094 18.4452 34.2113 17.9525 34.0207 17.4929C33.8301 17.0333 33.5508 16.6159 33.1987 16.2643L18.0451 1.11076C17.6936 0.758646 17.2761 0.479298 16.8165 0.288701C16.3569 0.0981045 15.8642 0 15.3667 0C14.8692 0 14.3765 0.0981045 13.9169 0.288701C13.4573 0.479298 13.0398 0.758646 12.6883 1.11076L2.41418 11.3849C0.97459 12.8245 0.163873 14.802 0.19418 16.8212C0.281313 22.2159 1.70954 40.9533 16.4767 55.7204C31.2439 70.4876 49.9813 71.912 55.3797 72.003H55.4858C57.4861 72.003 59.3765 71.215 60.8085 69.783L71.0826 59.5088C71.4347 59.1573 71.7141 58.7398 71.9047 58.2802C72.0953 57.8207 72.1934 57.328 72.1934 56.8304C72.1934 56.3329 72.0953 55.8402 71.9047 55.3807C71.7141 54.9211 71.4347 54.5036 71.0826 54.1521L55.929 38.9947ZM55.4479 64.4224C50.72 64.3428 34.5435 63.0737 21.8335 50.3599C9.08175 37.6081 7.84673 21.3749 7.77097 16.7417L15.3667 9.14594L25.1635 18.9427L20.2651 23.8411C19.8198 24.2861 19.4924 24.835 19.3125 25.4382C19.1326 26.0414 19.1058 26.68 19.2346 27.2961C19.3256 27.7318 21.5494 38.0627 27.8381 44.3515C34.1268 50.6402 44.4578 52.864 44.8934 52.9549C45.5092 53.0874 46.1484 53.0627 46.7522 52.8833C47.356 52.7039 47.9049 52.3755 48.3485 51.9283L53.2506 47.0299L63.0474 56.8267L55.4479 64.4224V64.4224Z" fill="#FF7B47"></path>
  </symbol>
  <symbol fill="none" xmlns="http://www.w3.org/2000/svg" viewBox="0 0 20 20" id="search">
    <path fill-rule="evenodd" clip-rule="evenodd" d="M11.4601 12.3185L15.7639 16.6223C15.9151 16.7737 16.0001 16.979 16 17.193C15.9999 17.407 15.9148 17.6122 15.7635 17.7635C15.6121 17.9147 15.4068 17.9997 15.1928 17.9996C14.9788 17.9995 14.7736 17.9144 14.6223 17.7631L10.3185 13.4593C9.03194 14.4558 7.41407 14.9247 5.79403 14.7707C4.17398 14.6167 2.67346 13.8513 1.59771 12.6302C0.521957 11.4091 -0.0482098 9.82408 0.00319691 8.19754C0.0546036 6.57101 0.723722 5.02514 1.87443 3.87443C3.02514 2.72372 4.57101 2.0546 6.19754 2.0032C7.82408 1.95179 9.40911 2.52196 10.6302 3.59771C11.8513 4.67346 12.6167 6.17398 12.7707 7.79403C12.9247 9.41407 12.4558 11.0319 11.4593 12.3185H11.4601ZM6.4003 13.1993C7.67328 13.1993 8.89412 12.6936 9.79425 11.7935C10.6944 10.8933 11.2001 9.67248 11.2001 8.3995C11.2001 7.12652 10.6944 5.90568 9.79425 5.00554C8.89412 4.10541 7.67328 3.59972 6.4003 3.59972C5.12732 3.59972 3.90648 4.10541 3.00634 5.00554C2.10621 5.90568 1.60052 7.12652 1.60052 8.3995C1.60052 9.67248 2.10621 10.8933 3.00634 11.7935C3.90648 12.6936 5.12732 13.1993 6.4003 13.1993Z" fill="white"></path>
  </symbol>
  <symbol fill="none" xmlns="http://www.w3.org/2000/svg" viewBox="0 0 16 15" id="shopping-cart">
    <g clip-path="url(#clip0)">
      <path d="M5.33229 14.9336C5.92139 14.9336 6.39896 14.4561 6.39896 13.867C6.39896 13.2779 5.92139 12.8003 5.33229 12.8003C4.74319 12.8003 4.26562 13.2779 4.26562 13.867C4.26562 14.4561 4.74319 14.9336 5.33229 14.9336Z" fill="white"></path>
      <path d="M12.801 14.9336C13.3901 14.9336 13.8677 14.4561 13.8677 13.867C13.8677 13.2779 13.3901 12.8003 12.801 12.8003C12.2119 12.8003 11.7344 13.2779 11.7344 13.867C11.7344 14.4561 12.2119 14.9336 12.801 14.9336Z" fill="white"></path>
      <path d="M14.9333 2.66678H3.104L2.66667 0.426775C2.64173 0.304495 2.57471 0.19483 2.47726 0.11687C2.37981 0.0389102 2.25811 -0.00240773 2.13333 0.000108501H0V1.06678H1.696L3.73333 11.3068C3.75827 11.4291 3.82529 11.5387 3.92274 11.6167C4.02019 11.6946 4.1419 11.736 4.26667 11.7334H13.8667V10.6668H4.704L4.26667 8.53344H13.8667C13.99 8.53646 14.1105 8.49665 14.2077 8.4208C14.305 8.34496 14.3729 8.23775 14.4 8.11744L15.4667 3.31744C15.4845 3.23831 15.4841 3.15614 15.4655 3.07719C15.4468 2.99824 15.4103 2.9246 15.3589 2.86185C15.3075 2.79911 15.2424 2.74893 15.1687 2.71512C15.0949 2.68132 15.0144 2.66478 14.9333 2.66678ZM13.44 7.46678H4.064L3.31733 3.73344H14.2667L13.44 7.46678Z" fill="white"></path>
    </g>
    <defs>
      <clipPath id="clip0">
        <rect width="16" height="14.9334" fill="white"></rect>
      </clipPath>
    </defs>
  </symbol>
  <symbol fill="none" xmlns="http://www.w3.org/2000/svg" viewBox="0 0 32 26" id="speed">
    <path d="M29.8154 7.36456L27.8167 10.3708C28.7806 12.2933 29.2525 14.4249 29.1901 16.5746C29.1277 18.7243 28.5329 20.825 27.4592 22.6883H4.93666C3.54106 20.2672 2.96277 17.4609 3.28751 14.6853C3.61226 11.9097 4.82277 9.31265 6.73956 7.27913C8.65636 5.2456 11.1774 3.88388 13.929 3.39581C16.6806 2.90775 19.5162 3.31934 22.0154 4.56956L25.0217 2.57081C21.9609 0.608159 18.3304 -0.27131 14.7109 0.0730789C11.0913 0.417467 7.69176 1.96581 5.05609 4.47045C2.42042 6.97509 0.700875 10.2913 0.172515 13.8886C-0.355844 17.486 0.337506 21.1566 2.14166 24.3133C2.42524 24.8045 2.83243 25.2129 3.32276 25.498C3.81309 25.7831 4.36949 25.9349 4.93666 25.9383H27.4429C28.0156 25.9406 28.5787 25.7915 29.0752 25.5061C29.5718 25.2208 29.9841 24.8093 30.2704 24.3133C31.7676 21.7197 32.519 18.7627 32.4416 15.769C32.3642 12.7752 31.461 9.86108 29.8317 7.34831L29.8154 7.36456ZM13.9067 18.4796C14.2085 18.7817 14.5669 19.0214 14.9615 19.185C15.356 19.3486 15.7789 19.4327 16.206 19.4327C16.6331 19.4327 17.056 19.3486 17.4506 19.185C17.8451 19.0214 18.2036 18.7817 18.5054 18.4796L27.7029 4.68331L13.9067 13.8808C13.6045 14.1826 13.3648 14.5411 13.2012 14.9356C13.0377 15.3302 12.9535 15.7531 12.9535 16.1802C12.9535 16.6073 13.0377 17.0302 13.2012 17.4247C13.3648 17.8193 13.6045 18.1777 13.9067 18.4796Z" fill="#FF7B47"></path>
  </symbol>
  <symbol fill="none" xmlns="http://www.w3.org/2000/svg" viewBox="0 0 25 30" id="triangle">
    <path d="M0.300781 0.800049L24.3008 15.2001L0.300781 29.6001V0.800049Z" fill="white"></path>
  </symbol>
  <symbol fill="none" xmlns="http://www.w3.org/2000/svg" viewBox="0 0 24 20" id="twitter">
    <g clip-path="url(#clip0)">
      <path d="M24.0014 2.46548C23.1198 2.85141 22.1603 3.12917 21.1721 3.23735C22.1981 2.61879 22.9665 1.64156 23.333 0.489007C22.3702 1.07022 21.3155 1.47778 20.2156 1.6936C19.7559 1.19488 19.1999 0.797581 18.5823 0.526453C17.9646 0.255325 17.2986 0.116179 16.6257 0.117688C13.903 0.117688 11.7133 2.3573 11.7133 5.10564C11.7133 5.49158 11.7594 5.87752 11.8343 6.24884C7.75747 6.03248 4.12146 4.05601 1.70417 1.0299C1.26372 1.79335 1.0329 2.66261 1.03575 3.54727C1.03575 5.27814 1.90297 6.80435 3.22542 7.70195C2.44608 7.6708 1.68499 7.45342 1.00405 7.06749V7.12889C1.00405 9.5527 2.69241 11.5613 4.94259 12.0233C4.52009 12.1347 4.08547 12.1916 3.64895 12.1929C3.32914 12.1929 3.02662 12.1607 2.72122 12.1168C3.34355 14.0933 5.15579 15.5289 7.31378 15.5757C5.62542 16.9177 3.51066 17.7071 1.21438 17.7071C0.802374 17.7071 0.422061 17.6925 0.0273438 17.6457C2.20549 19.0637 4.78989 19.8824 7.57308 19.8824C16.6084 19.8824 21.5524 12.2864 21.5524 5.69332C21.5524 5.47696 21.5524 5.2606 21.538 5.04424C22.4946 4.33377 23.333 3.45371 24.0014 2.46548Z" fill="#21A6DF"></path>
    </g>
    <defs>
      <clipPath id="clip0">
        <rect width="24" height="19.7647" fill="white" transform="translate(0 0.117676)"></rect>
      </clipPath>
    </defs>
  </symbol>
  <symbol fill="none" xmlns="http://www.w3.org/2000/svg" viewBox="0 0 24 18" id="youtube">
    <g clip-path="url(#clip0)">
      <path d="M23.4699 2.93166C23.3335 2.3987 23.0663 1.91276 22.6951 1.52249C22.324 1.13221 21.8619 0.851291 21.355 0.707834C19.4884 0.176636 11.9879 0.176636 11.9879 0.176636C11.9879 0.176636 4.48729 0.176636 2.62071 0.707834C2.11385 0.851291 1.65172 1.13221 1.28057 1.52249C0.90941 1.91276 0.642248 2.3987 0.50582 2.93166C0.157288 4.93335 -0.0118455 6.96501 0.000644257 8.99993C-0.0118455 11.0348 0.157288 13.0665 0.50582 15.0682C0.642248 15.6012 0.90941 16.0871 1.28057 16.4774C1.65172 16.8676 2.11385 17.1486 2.62071 17.292C4.48729 17.8232 11.9879 17.8232 11.9879 17.8232C11.9879 17.8232 19.4884 17.8232 21.355 17.292C21.8619 17.1486 22.324 16.8676 22.6951 16.4774C23.0663 16.0871 23.3335 15.6012 23.4699 15.0682C23.8184 13.0665 23.9876 11.0348 23.9751 8.99993C23.9876 6.96501 23.8184 4.93335 23.4699 2.93166ZM9.59041 12.7813V5.21852L15.8152 8.99993L9.59041 12.7813Z" fill="#E42F08"></path>
    </g>
    <defs>
      <clipPath id="clip0">
        <rect width="24" height="17.6842" fill="white" transform="translate(0 0.157837)"></rect>
      </clipPath>
    </defs>
  </symbol>
</svg>