<svg width="0" height="0" class="hidden">
  <symbol fill="none" xmlns="http://www.w3.org/2000/svg" viewBox="0 0 104 63" id="fa-brands_aws">
    <g clip-path="url(#clip0)">
      <path d="M29.3877 22.9887C29.2711 26.6268 31.1049 28.2378 31.1502 29.261C31.1286 29.4692 31.0571 29.6693 30.9415 29.8445C30.826 30.0197 30.6698 30.165 30.486 30.2681L28.4125 31.7072C28.1442 31.8938 27.8279 32.0007 27.5005 32.0156C27.4308 32.0124 26.1738 32.3096 24.1829 27.9021C22.9682 29.4055 21.4227 30.6133 19.6648 31.4332C17.9068 32.2531 15.9829 32.6633 14.0404 32.6324C11.4032 32.7754 4.25602 31.1483 4.62374 23.6039C4.36618 17.4553 10.1413 13.6357 16.114 13.9585C17.2641 13.9618 19.613 14.018 23.7261 14.9656V12.4567C24.1618 8.20668 21.3447 4.90911 16.4671 5.40383C16.0783 5.40543 13.3244 5.32352 9.04132 7.02771C7.84904 7.57061 7.69677 7.48067 7.29988 7.48067C6.09951 7.48067 6.59359 4.03051 6.82362 3.59362C7.66761 2.56564 12.6327 0.646211 17.5055 0.673517C20.7636 0.387814 24.0042 1.38483 26.5269 3.44906C27.5524 4.5864 28.3347 5.91801 28.8267 7.3635C29.3187 8.80898 29.5101 10.3383 29.3894 11.8592L29.3877 22.9887ZM15.3882 28.1912C20.6417 28.1157 22.8659 24.9836 23.3729 23.2971C23.7714 21.6828 23.705 20.6613 23.705 18.8961C22.1385 18.5234 19.8836 18.117 17.2965 18.1138C14.8423 17.9307 10.3599 19.0181 10.5349 23.2955C10.334 25.9923 12.3363 28.339 15.3882 28.1912ZM43.0762 31.8936C41.8029 32.0092 41.21 31.1129 41.0221 30.2279L32.9548 3.78155C32.7977 3.33502 32.694 2.87403 32.6438 2.40341C32.614 2.20939 32.6632 2.01158 32.7804 1.85346C32.8977 1.69535 33.0734 1.58985 33.2691 1.56015C33.308 1.55372 32.9241 1.56015 36.8735 1.56015C38.2958 1.4188 38.7591 2.5287 38.9065 3.2258L44.6929 25.8462L50.0646 3.2258C50.1505 2.70859 50.5409 1.44771 52.1381 1.58103H54.9179C55.2695 1.55212 56.7177 1.50072 56.972 3.24668L62.3859 26.1562L68.3586 3.24668C68.4363 2.89652 68.7992 1.42041 70.4127 1.58103H73.6072C73.7449 1.56015 74.6034 1.45093 74.4576 2.95916C74.388 3.25631 75.01 1.24694 65.9125 30.2488C65.7262 31.1338 65.1317 32.0301 63.8584 31.9144H60.8307C59.0585 32.0992 58.8042 30.3628 58.7766 30.1878L53.4049 8.1617L48.0948 30.1653C48.0689 30.3404 47.8145 32.0767 46.0407 31.892H43.0762V31.8936ZM87.3783 32.7979C86.4257 32.7995 81.8834 32.7497 78.0863 30.8238C77.7081 30.665 77.3859 30.3984 77.1606 30.0579C76.9354 29.7173 76.8172 29.3181 76.8211 28.9108V27.1841C76.8211 25.8269 77.8255 26.0758 78.2515 26.2381C79.8779 26.8902 80.9212 27.3849 82.9186 27.78C88.8556 28.9895 91.467 27.4106 92.1069 27.0605C94.2371 25.806 94.4055 22.9357 92.9573 21.4467C91.2596 20.0349 90.4497 19.9819 84.3506 18.0737C83.5989 17.8665 77.2715 15.8876 77.2569 9.66352C77.1581 5.12756 81.3148 0.639785 88.5187 0.676728C90.5712 0.675122 96.0401 1.3401 97.5207 3.18564C97.7394 3.52134 97.8479 3.91647 97.8317 4.31642V5.9403C97.8317 6.65346 97.5693 7.01004 97.0428 7.01004C95.7938 6.87191 93.5778 5.2159 89.0792 5.28336C87.9631 5.22554 82.6173 5.42953 82.857 9.29409C82.7874 12.3395 87.1677 13.4815 87.6682 13.6132C93.5745 15.3752 95.5492 15.6676 97.8933 18.3644C100.67 21.9382 99.173 26.1224 98.5979 27.2693C95.5071 33.291 87.5143 32.8011 87.3783 32.7979ZM93.8904 49.6407C82.546 57.948 66.0777 62.3699 52.0166 62.3699C33.044 62.494 14.7108 55.5768 0.620879 42.9781C-0.43694 42.032 0.496144 40.7358 1.78237 41.457C17.4123 50.322 35.1086 54.9799 53.115 54.9685C66.5616 54.897 79.8616 52.1923 92.251 47.0097C94.1593 46.2066 95.7776 48.2625 93.8904 49.6407ZM98.619 44.2936C97.1675 42.4432 89.016 43.4294 85.3663 43.8615C84.2663 43.9852 84.0801 43.0391 85.0763 42.3404C91.5674 37.8157 102.228 39.1119 103.453 40.633C104.676 42.1541 103.121 52.7455 97.0444 57.8051C96.1113 58.5873 95.2188 58.1745 95.6335 57.1465C97.0007 53.7333 100.07 46.1455 98.619 44.2936Z" fill="#BDBDBD"></path>
    </g>
    <defs>
      <clipPath id="clip0">
        <rect width="104" height="62" fill="white" transform="translate(0 0.5)"></rect>
      </clipPath>
    </defs>
  </symbol>
  <symbol fill="none" xmlns="http://www.w3.org/2000/svg" viewBox="0 0 103 35" id="fa-brands_hooli">
    <g clip-path="url(#clip0)">
      <path d="M23.2553 32.4249L29.4193 32.5526C27.2949 31.8183 25.2349 30.9244 23.2553 29.8709V32.4249ZM32.5414 31.5789V32.4249L29.4193 32.5526C35.2935 34.5479 40.6688 34.8193 44.66 33.7019C41.4574 33.7338 37.2891 33.2869 32.5414 31.5789ZM98.3488 13.1901C100.908 13.1901 103 11.131 103 8.577C103 6.02301 100.924 4.6662 98.3488 4.6662C95.7899 4.6662 93.6977 6.03897 93.6977 8.577C93.6977 11.115 95.7738 13.1901 98.3488 13.1901ZM93.6816 32.4249H103V14.7864H93.6816V32.4249ZM81.8205 32.4249H91.1388V1.25024L81.8205 5.60799V32.4249ZM76.8314 13.3657C73.9024 10.4606 68.7202 10.6362 68.7202 10.6362C68.7202 10.6362 63.5219 10.4606 60.6089 13.3657C57.6799 16.2709 57.9052 18.777 57.9052 21.762C57.9052 24.747 57.6799 27.2371 60.6089 30.1423C63.538 33.0474 68.7202 32.8718 68.7202 32.8718C68.7202 32.8718 73.9185 33.0474 76.8314 30.1423C79.7605 27.2371 79.5352 24.747 79.5352 21.762C79.5191 18.761 79.7444 16.2549 76.8314 13.3657ZM70.4261 24.8427C70.4261 25.4174 70.1364 26.838 68.7041 26.838C67.2718 26.838 66.9821 25.4174 66.9821 24.8427V18.3939C66.9821 17.0052 68.1569 16.654 68.7041 16.654C69.2513 16.654 70.4261 16.9892 70.4261 18.3939V24.8427ZM53.3346 13.3657C50.4055 10.4606 45.2233 10.6362 45.2233 10.6362C45.2233 10.6362 40.0411 10.4606 37.1121 13.3657C36.8063 13.669 36.5166 13.9883 36.2591 14.3235C30.1113 9.5986 24.5911 6.90094 19.8274 4.57043V1.2662L16.2063 2.95822C7.45129 -0.56948 1.88285 0.053056 0.547068 2.97418C0.547068 2.97418 -3.46027 8.20986 10.493 20.6606V32.4249H19.8113V27.8596C18.7652 27.1892 17.7191 26.4709 16.6891 25.6887C14.3072 23.9009 12.2794 22.2409 10.5091 20.6765V15.7282C12.6174 18.0747 15.4177 20.7404 19.1032 23.7573L19.8274 24.3319V19.5751C19.8274 18.4737 20.101 16.67 21.5655 16.67C23.03 16.67 23.2714 17.7714 23.2714 19.0643V26.838C26.1683 28.7855 29.2744 30.3657 32.5575 31.5629V16.5742C32.5575 13.5892 30.401 10.6042 26.0235 10.6042C23.4807 10.5883 21.1149 11.9132 19.8274 14.1V5.4324C26.5707 8.76855 33.33 12.8549 35.905 14.7385C34.2635 17.069 34.4083 19.2239 34.4083 21.7141C34.4083 24.6991 34.183 27.1892 37.1121 30.0944C40.0411 32.9995 45.2233 32.824 45.2233 32.824C45.2233 32.824 50.4216 32.9995 53.3346 30.0944C56.2636 27.1892 56.0222 24.6991 56.0222 21.7141C56.0222 18.761 56.2636 16.2549 53.3346 13.3657ZM10.493 5.60799V15.7122C2.65535 7.01268 4.23254 3.58076 4.82801 3.08592C7.00066 1.2662 10.8632 1.80893 15.1924 3.42113L10.493 5.60799ZM46.9453 24.8427C46.9453 25.4174 46.6557 26.838 45.2233 26.838C43.791 26.838 43.5013 25.4174 43.5013 24.8427V18.3939C43.5013 17.0052 44.6761 16.654 45.2233 16.654C45.7705 16.654 46.9453 16.9892 46.9453 18.3939V24.8427Z" fill="#BDBDBD"></path>
    </g>
    <defs>
      <clipPath id="clip0">
        <rect width="103" height="34" fill="white" transform="translate(0 0.5)"></rect>
      </clipPath>
    </defs>
  </symbol>
  <symbol fill="none" xmlns="http://www.w3.org/2000/svg" viewBox="0 0 84 59" id="fa-brands_lyft">
    <g clip-path="url(#clip0)">
      <path d="M0.5 0.995234H13.1121V35.0099C13.1121 40.4046 15.5437 43.6154 17.5215 44.9519C15.4627 46.761 9.22148 48.3582 4.52031 44.4955C1.76445 42.2137 0.5 38.4162 0.5 34.8795V0.995234ZM79.2689 29.2729V25.6872H83.1272V13.1701H78.8961C77.2588 5.62396 70.5961 0.017334 62.6365 0.017334C53.4611 0.017334 45.9879 7.51457 45.9879 16.7557V45.9624C48.5816 46.3372 51.7266 45.9135 54.3689 43.6806C57.141 41.3988 58.3893 37.6176 58.3893 34.0646V32.9726H64.6791V20.4555H58.3893V16.6579C58.3893 11.0187 66.8514 11.0187 66.8514 16.6579V29.224C66.8514 38.4488 74.3084 45.9624 83.5 45.9624V33.4941C81.1494 33.4941 79.2689 31.5872 79.2689 29.2729ZM31.5602 13.1375V31.5546C31.5602 34.0646 27.702 34.0646 27.702 31.5546V13.1375H15.252V34.7654C15.252 38.6444 16.5488 43.5665 22.5469 45.18C28.5449 46.7773 31.9816 43.4524 31.9816 43.4524C31.6412 45.6364 29.6311 47.2499 26.324 47.5759C23.8113 47.8367 20.6178 46.9892 19.0291 46.3046V57.7624C23.098 58.9847 27.3777 59.3596 31.6088 58.5284C39.2441 57.0452 44.0588 50.64 44.0588 42.0996V13.056H31.5602V13.1375Z" fill="#BDBDBD"></path>
    </g>
    <defs>
      <clipPath id="clip0">
        <rect width="83" height="59" fill="white" transform="translate(0.5)"></rect>
      </clipPath>
    </defs>
  </symbol>
  <symbol fill="none" xmlns="http://www.w3.org/2000/svg" viewBox="0 0 102 75" id="fa-brands_pied-piper-hat">
    <path d="M102 0.145752C89.1225 8.82826 87.7519 15.1296 86.6362 17.0572C85.5684 19.0334 84.7716 26.825 82.9228 30.5993C81.0581 34.4222 74.2847 37.4352 72.3881 38.6987C70.5234 39.9622 67.8778 44.8704 65.7103 49.0982C48.4819 48.3855 39.0309 55.3833 24.4003 64.2602C29.0859 62.6889 31.3012 61.555 31.3012 61.555C46.3144 55.7235 53.5022 50.4913 76.1016 53.5853C76.2769 53.5853 76.4044 53.6825 76.5478 53.7149C77.1694 54.0712 77.3925 54.8326 77.0419 55.4643L68.4516 70.9827C68.0531 71.744 67.2084 72.149 66.3637 71.9708C46.155 68.1155 30.2016 74.7732 15.5391 74.9838C3.84094 75.1619 0 69.5572 0 69.298C0 69.1198 0.095625 69.0226 0.270938 69.0226C0.270938 69.0226 6.375 69.0226 16.7025 66.5442C28.4325 43.8175 38.8875 35.8639 50.2669 35.8639C50.2669 35.8639 61.6941 35.8639 64.7062 45.8909C68.34 39.46 69.2166 37.9211 69.2166 37.9211C70.0612 36.3985 74.7947 25.4157 82.9866 15.0162C91.1944 4.64899 97.3941 2.0734 102 0.145752Z" fill="#BDBDBD"></path>
  </symbol>
  <symbol fill="none" xmlns="http://www.w3.org/2000/svg" viewBox="0 0 77 73" id="fa-brands_reddit-alien">
    <g clip-path="url(#clip0)">
      <path d="M67.9269 28.1614C65.532 28.1614 63.4244 29.1556 61.8757 30.7111C56.1757 26.7503 48.4958 24.2006 39.9858 23.928L44.4085 3.91556L58.4908 7.09061C58.4908 10.5543 61.3009 13.3766 64.7496 13.3766C68.2622 13.3766 71.0883 10.4741 71.0883 7.01043C71.0883 3.54674 68.2782 0.644287 64.7496 0.644287C62.2908 0.644287 60.1673 2.1356 59.1135 4.17213L43.5622 0.70843C42.7799 0.499966 42.0135 1.06121 41.8059 1.84696L36.9522 23.912C28.5059 24.2648 20.9059 26.8144 15.19 30.7752C13.6412 29.1556 11.4538 28.1614 9.05888 28.1614C0.181567 28.1614 -2.72432 40.124 5.40258 44.2131C5.11518 45.4799 4.98745 46.8269 4.98745 48.1739C4.98745 61.6118 20.0597 72.5 38.5648 72.5C57.1496 72.5 72.2219 61.6118 72.2219 48.1739C72.2219 46.8269 72.0782 45.4158 71.7269 44.149C79.6942 40.0438 76.7563 28.1614 67.9269 28.1614ZM18.2874 45.063C18.2874 41.5351 21.0975 38.6968 24.6261 38.6968C28.0748 38.6968 30.8849 41.5191 30.8849 45.063C30.8849 48.5267 28.0748 51.349 24.6261 51.349C21.1135 51.365 18.2874 48.5267 18.2874 45.063ZM52.5034 60.0563C46.6916 65.8933 30.2942 65.8933 24.4824 60.0563C23.8438 59.4951 23.8438 58.5008 24.4824 57.8594C25.0412 57.2982 26.0311 57.2982 26.59 57.8594C31.0286 62.4296 45.7496 62.5098 50.3799 57.8594C50.9387 57.2982 51.9286 57.2982 52.4874 57.8594C53.1421 58.5008 53.1421 59.4951 52.5034 60.0563ZM52.3757 51.365C48.9269 51.365 46.1169 48.5427 46.1169 45.079C46.1169 41.5512 48.9269 38.7129 52.3757 38.7129C55.8883 38.7129 58.7143 41.5351 58.7143 45.079C58.6984 48.5267 55.8883 51.365 52.3757 51.365Z" fill="#BDBDBD"></path>
    </g>
    <defs>
      <clipPath id="clip0">
        <rect width="76" height="72" fill="white" transform="translate(0.5 0.5)"></rect>
      </clipPath>
    </defs>
  </symbol>
  <symbol fill="none" xmlns="http://www.w3.org/2000/svg" viewBox="0 0 103 43" id="fa-brands_stripe">
    <g clip-path="url(#clip0)">
      <path d="M26.5562 3.79318L19.5876 5.25682L19.5554 27.9114C19.5554 32.0955 22.742 34.8 26.9746 34.8C29.3243 34.8 31.0463 34.3705 31.9959 33.8614V28.4841C31.0785 28.85 26.5723 30.1546 26.5723 25.9864V15.9318H31.9959V9.91818H26.5723L26.5562 3.79318ZM40.8957 12.0023L40.4612 9.91818H34.2812V34.2909H41.4107V17.8886C43.1005 15.6932 45.9491 16.1227 46.8665 16.4091V9.91818C45.9009 9.58409 42.5695 8.96364 40.8957 12.0023ZM55.7502 0.5L48.5724 2.01136V7.77045L55.7502 6.25909V0.5ZM7.22758 17.0932C7.22758 15.9955 8.16102 15.5659 9.65774 15.55C11.8304 15.55 14.5985 16.2023 16.7712 17.3636V10.7136C14.4054 9.79091 12.0396 9.425 9.67383 9.425C3.88008 9.425 0.0175781 12.4159 0.0175781 17.4114C0.0175781 25.2386 10.8809 23.9659 10.8809 27.3386C10.8809 28.6432 9.7382 29.0727 8.14492 29.0727C5.77914 29.0727 2.72133 28.1023 0.323359 26.8136V33.1773C2.97883 34.3068 5.66649 34.7841 8.12883 34.7841C14.0674 34.7841 18.1552 32.2705 18.1552 27.1796C18.1552 18.7636 7.22758 20.275 7.22758 17.0932ZM103.002 22.3909C103.002 15.1523 99.4609 9.44091 92.6693 9.44091C85.8777 9.44091 81.7416 15.1523 81.7416 22.3432C81.7416 30.8545 86.6181 34.7841 93.5706 34.7841C96.9824 34.7841 99.5413 34.0205 101.489 32.9545V27.6409C99.5413 28.6114 97.3043 29.2 94.4718 29.2C91.6876 29.2 89.2413 28.2295 88.9195 24.9205H102.905C102.937 24.5545 103.002 23.075 103.002 22.3909ZM88.8551 19.7182C88.8551 16.5364 90.8346 15.2 92.621 15.2C94.3753 15.2 96.2421 16.5364 96.2421 19.7182H88.8551ZM70.6852 9.44091C67.8849 9.44091 66.0824 10.7455 65.0846 11.6523L64.7145 9.90227H58.4218V42.4841L65.5674 40.9886L65.5835 33.0023C66.6135 33.75 68.1424 34.7841 70.637 34.7841C75.7548 34.7841 80.422 31.0932 80.422 22.1205C80.4381 13.9114 75.7065 9.44091 70.6852 9.44091ZM68.9793 28.9296C67.3056 28.9296 66.3077 28.325 65.6157 27.5932L65.5674 17.0932C66.3077 16.2818 67.3377 15.6932 68.9793 15.6932C71.5865 15.6932 73.389 18.5886 73.389 22.2795C73.4051 26.0818 71.6348 28.9296 68.9793 28.9296ZM48.5885 34.2909H55.7663V9.91818H48.5885V34.2909Z" fill="#BDBDBD"></path>
    </g>
    <defs>
      <clipPath id="clip0">
        <rect width="103" height="42" fill="white" transform="translate(0 0.5)"></rect>
      </clipPath>
    </defs>
  </symbol>
</svg>